<?xml version="1.0" encoding="UTF-8"?>
<svg id="Layer_1" data-name="Layer 1" xmlns="http://www.w3.org/2000/svg" viewBox="0 0 1920 1080">
  <defs>
    <style>
      .cls-1 {
        fill: #000;
        font-size: 320px;
      }

      .cls-2 {
        fill: none;
        stroke: #ced0d4;
        stroke-linejoin: round;
        stroke-width: 10px;
      }

      .cls-3, .cls-4 {
        font-family: SourceSansItalic-Regular, 'Source Sans Variable';
        font-variation-settings: 'wght' 400;
      }

      .cls-5 {
        font-family: SourceSansRoman-Black, 'Source Sans Variable';
        font-variation-settings: 'wght' 900;
        font-weight: 800;
      }

      .cls-4 {
        letter-spacing: -.01em;
      }

      .cls-6 {
        fill: #b8e6ff;
        stroke-width: 0px;
      }
    </style>
  </defs>
  <path class="cls-2" d="M975.72,273.02c-.13,70.14-.33,140.27-.65,210.41"/>
  <line class="cls-2" x1="975.08" y1="483.43" x2="975.08" y2="830"/>
  <path class="cls-6" d="M398.28,475.69c-.66-3.12-1.13-6.54-1.11-11.76-1.64-41.18-7.23-87.13-18.69-127.27-8.74-29.37-28.19-59.8-37.15-89.18-14.02-49.43-10.78-107.6,18.66-151.81,2.6,4.44,6.76,8.08,11.65,10.4-4.21,7-7.51,14.59-9.54,23.01-6.87,32.66-9.67,67.29-1.68,99.89,10.52,40.07,43.98,71.21,52.5,112.13,4.94,23.48,7.36,47.64,9.48,71.36.96,7.48,4.05,79.21-4.62,109.86l-19.5-46.63Z"/>
  <path class="cls-6" d="M418.68,511.86c-.31,3.49-.6,6.97-.9,10.46-3.27,11.6-8.23,17.32-15.62,11.46v-24.95c0-20.7-2.41-26.15-3.88-33.14,1.39-11.69,5.23-20.7,14.99-20.17,13.96,8.06,5.74,37.36,5.41,56.34Z"/>
  <path class="cls-6" d="M398.28,475.69c-1.65,14.02.22,31.91-.35,41.84-.05,13.88-.88,26.62-3.82,39.78-8.32,40.66-39.21,69.56-61.98,95.42-40.22,43.8-89.84,102.37-125.73,138.75-37.43,30.09-87.43,21.54-130.13,19.14-10.05-.65-29.88-5.69-36.99-.66l-.19.19c-2.46,16.21,74.01,17.86,86.52,19.69,58.82,6.25,88.17-15.48,130.7-62.74,34.5-37.25,64.74-69.93,97.63-110.89,20.54-26,46.8-49.77,56.34-84.97,4.6-15.76,6.1-32.3,7.5-48.92l-19.5-46.63Z"/>
  <path class="cls-2" d="M55.67,375.57c169.27-2.27,365.68-8,535.19.37,117.88.63,246.42-3.05,364.37-1.45"/>
  <path class="cls-2" d="M712.35,262.73c-50.01,56.91-19.35,142.27-22.18,211.65v350.62"/>
  <path class="cls-2" d="M911.91,373.76c.13-34.15.26-68.3.4-102.45"/>
  <path class="cls-2" d="M55.67,858.74c29.45,9.21,79.52,23.86,110.18,15.92,21.15-3.03,42.19-27.17,56.31-41.62,59.95-69.68,72.29-88.19,168.11-85.05,78.8,7.43,165.84,1.27,244.99,4.7,103.77,3.98,216.03-.55,319.98,2.53"/>
  <path class="cls-2" d="M55.67,750.89c32.31-1.58,76.23-3.74,108.82-3.62,19.4-.45,44.78,4.38,55.22-16.65,18.07-44.16,67.25-99.8,78.24-146.21,0,0,.27-25.7.27-25.7-45.9,2.43-199.25,9.04-242.55,7.6"/>
  <line class="cls-2" x1="298.22" y1="558.71" x2="333.41" y2="565.94"/>
  <path class="cls-2" d="M955.23,686.1c-14.31.09-28.4-3.19-39.21-13.06"/>
  <path class="cls-2" d="M902.44,374.13c42.06.11,108.34,1.88,151.05,0"/>
  <path class="cls-2" d="M911.64,374.13c.26-34.15.53-68.3.79-102.45"/>
  <path class="cls-2" d="M902.44,754.51c42.63,1.05,108.11,1.11,151.05.72"/>
  <path class="cls-2" d="M976.61,686.1c-20.12.11-42.4,1.47-59.09-11.85l-31.52-37.26c-17.92-17.07-61.16-59.24-12-72"/>
  <path class="cls-2" d="M408.91,866.17c-11.76-172.33-91.4-222.89-78.91-425.17v-142"/>
  <path class="cls-2" d="M494.97,283.45c-1.85,44.05,2.05,88.04,4,132.02.02.55.05,1.11.07,1.66v146.87"/>
  <path class="cls-2" d="M590.85,375.93c.06-32.42.13-64.84.19-97.26"/>
  <path class="cls-2" d="M690.47,375.57c24.66,30.73,111.8,138.74,136.53,169.43"/>
  <path class="cls-2" d="M333.41,565.94c31.32-.64,62.64-1.1,93.96-1.35h605.63"/>
  <path class="cls-2" d="M484,563c-4.21,29.74-4.88,54.21-1.53,84.07l.74,15.5c2.39,29.65-8.28,60.31-19.21,87.42"/>
  <line class="cls-2" x1="805.25" y1="566.67" x2="805.52" y2="752.7"/>
  <text class="cls-1" transform="translate(500.78 633.05)"><tspan class="cls-5" x="0" y="0">Urb</tspan><tspan class="cls-4" x="534.39" y="0">c</tspan><tspan class="cls-3" x="668.79" y="0">om.</tspan></text>
  <line class="cls-2" x1="118.32" y1="297.68" x2="119.34" y2="919.64"/>
</svg>